<svg width="229" height="18" viewBox="0 0 229 18" fill="none" xmlns="http://www.w3.org/2000/svg">
<path d="M4.9 17V4.35H0.6V0.749999H13.5V4.35H9.2V17H4.9ZM16.4113 17V0.749999H20.7113V6.8H25.5613V0.749999H29.8613V17H25.5613V10.55H20.7113V17H16.4113ZM33.9523 17V0.749999H44.4523V4.35H38.2523V6.9H43.5523V10.5H38.2523V13.4H44.7023V17H33.9523ZM53.8488 17V0.749999H64.3488V4.35H58.1488V6.9H63.4488V10.5H58.1488V13.4H64.5988V17H53.8488ZM66.6904 17L71.0904 8.65L66.9404 0.749999H71.7404L72.8404 3.4C73.0238 3.78333 73.1988 4.2 73.3654 4.65C73.5488 5.08333 73.7571 5.56667 73.9904 6.1H74.0904C74.2738 5.56667 74.4488 5.08333 74.6154 4.65C74.7821 4.2 74.9404 3.78333 75.0904 3.4L76.0404 0.749999H80.6404L76.4904 8.85L80.8904 17H76.0904L74.7904 14.1C74.5904 13.6667 74.3988 13.2333 74.2154 12.8C74.0321 12.3667 73.8404 11.9 73.6404 11.4H73.5404C73.3571 11.9 73.1821 12.3667 73.0154 12.8C72.8488 13.2333 72.6738 13.6667 72.4904 14.1L71.2904 17H66.6904ZM83.4377 17V0.749999H89.3877C90.271 0.749999 91.1127 0.841666 91.9127 1.025C92.7127 1.19167 93.4127 1.49167 94.0127 1.925C94.6127 2.34167 95.0877 2.9 95.4377 3.6C95.8044 4.28333 95.9877 5.13333 95.9877 6.15C95.9877 7.15 95.8044 8.00833 95.4377 8.725C95.0877 9.44167 94.6127 10.0333 94.0127 10.5C93.4127 10.95 92.721 11.2917 91.9377 11.525C91.1544 11.7417 90.3377 11.85 89.4877 11.85H87.7377V17H83.4377ZM87.7377 8.45H89.2877C90.1377 8.45 90.7627 8.25 91.1627 7.85C91.5794 7.45 91.7877 6.88333 91.7877 6.15C91.7877 5.41667 91.5627 4.9 91.1127 4.6C90.6627 4.3 90.021 4.15 89.1877 4.15H87.7377V8.45ZM99.1477 17V0.749999H105.298C106.164 0.749999 106.989 0.833332 107.773 0.999999C108.573 1.16667 109.264 1.45 109.848 1.85C110.448 2.25 110.923 2.79167 111.273 3.475C111.623 4.14167 111.798 4.98333 111.798 6C111.798 7.16667 111.556 8.13333 111.073 8.9C110.606 9.66667 109.973 10.2667 109.173 10.7L112.698 17H107.898L105.098 11.55H103.448V17H99.1477ZM103.448 8.15H104.998C106.731 8.15 107.598 7.43333 107.598 6C107.598 5.3 107.373 4.81667 106.923 4.55C106.489 4.28333 105.848 4.15 104.998 4.15H103.448V8.15ZM115.395 17V0.749999H125.895V4.35H119.695V6.9H124.995V10.5H119.695V13.4H126.145V17H115.395ZM134.936 17.3C133.903 17.3 132.836 17.1167 131.736 16.75C130.653 16.3667 129.67 15.775 128.786 14.975L131.236 12.025C131.82 12.4917 132.445 12.875 133.111 13.175C133.795 13.4583 134.436 13.6 135.036 13.6C135.686 13.6 136.153 13.5 136.436 13.3C136.736 13.1 136.886 12.8167 136.886 12.45C136.886 12.25 136.836 12.0833 136.736 11.95C136.636 11.8167 136.486 11.6917 136.286 11.575C136.103 11.4583 135.878 11.35 135.611 11.25C135.345 11.1333 135.036 11.0083 134.686 10.875L132.661 10.025C132.228 9.85833 131.811 9.64167 131.411 9.375C131.011 9.09167 130.661 8.76667 130.361 8.4C130.061 8.01667 129.82 7.58333 129.636 7.1C129.47 6.61667 129.386 6.08333 129.386 5.5C129.386 4.8 129.536 4.15 129.836 3.55C130.136 2.93333 130.553 2.4 131.086 1.95C131.62 1.48333 132.253 1.11667 132.986 0.849999C133.736 0.583332 134.553 0.449998 135.436 0.449998C136.37 0.449998 137.311 0.624999 138.261 0.974999C139.228 1.325 140.086 1.875 140.836 2.625L138.686 5.325C138.136 4.94167 137.603 4.65 137.086 4.45C136.586 4.25 136.036 4.15 135.436 4.15C134.903 4.15 134.486 4.24167 134.186 4.425C133.886 4.60833 133.736 4.88333 133.736 5.25C133.736 5.63333 133.945 5.93333 134.361 6.15C134.795 6.35 135.386 6.59167 136.136 6.875L138.111 7.65C139.128 8.05 139.911 8.60833 140.461 9.325C141.011 10.0417 141.286 10.9667 141.286 12.1C141.286 12.7833 141.145 13.4417 140.861 14.075C140.578 14.7083 140.161 15.2667 139.611 15.75C139.078 16.2167 138.42 16.5917 137.636 16.875C136.853 17.1583 135.953 17.3 134.936 17.3ZM149.059 17.3C148.026 17.3 146.959 17.1167 145.859 16.75C144.776 16.3667 143.793 15.775 142.909 14.975L145.359 12.025C145.943 12.4917 146.568 12.875 147.234 13.175C147.918 13.4583 148.559 13.6 149.159 13.6C149.809 13.6 150.276 13.5 150.559 13.3C150.859 13.1 151.009 12.8167 151.009 12.45C151.009 12.25 150.959 12.0833 150.859 11.95C150.759 11.8167 150.609 11.6917 150.409 11.575C150.226 11.4583 150.001 11.35 149.734 11.25C149.468 11.1333 149.159 11.0083 148.809 10.875L146.784 10.025C146.351 9.85833 145.934 9.64167 145.534 9.375C145.134 9.09167 144.784 8.76667 144.484 8.4C144.184 8.01667 143.943 7.58333 143.759 7.1C143.593 6.61667 143.509 6.08333 143.509 5.5C143.509 4.8 143.659 4.15 143.959 3.55C144.259 2.93333 144.676 2.4 145.209 1.95C145.743 1.48333 146.376 1.11667 147.109 0.849999C147.859 0.583332 148.676 0.449998 149.559 0.449998C150.493 0.449998 151.434 0.624999 152.384 0.974999C153.351 1.325 154.209 1.875 154.959 2.625L152.809 5.325C152.259 4.94167 151.726 4.65 151.209 4.45C150.709 4.25 150.159 4.15 149.559 4.15C149.026 4.15 148.609 4.24167 148.309 4.425C148.009 4.60833 147.859 4.88333 147.859 5.25C147.859 5.63333 148.068 5.93333 148.484 6.15C148.918 6.35 149.509 6.59167 150.259 6.875L152.234 7.65C153.251 8.05 154.034 8.60833 154.584 9.325C155.134 10.0417 155.409 10.9667 155.409 12.1C155.409 12.7833 155.268 13.4417 154.984 14.075C154.701 14.7083 154.284 15.2667 153.734 15.75C153.201 16.2167 152.543 16.5917 151.759 16.875C150.976 17.1583 150.076 17.3 149.059 17.3ZM164.026 17V0.749999H168.426L172.026 8L173.576 11.65H173.676C173.626 11.2167 173.567 10.7417 173.501 10.225C173.434 9.70833 173.376 9.18333 173.326 8.65C173.276 8.1 173.226 7.55833 173.176 7.025C173.142 6.475 173.126 5.95 173.126 5.45V0.749999H177.226V17H172.826L169.226 9.725L167.676 6.1H167.576C167.676 7.03333 167.792 8.05 167.926 9.15C168.059 10.25 168.126 11.3 168.126 12.3V17H164.026ZM181.322 17V0.749999H191.822V4.35H185.622V6.9H190.922V10.5H185.622V13.4H192.072V17H181.322ZM197.014 17L194.164 0.749999H198.564L199.464 7.85C199.547 8.7 199.639 9.55 199.739 10.4C199.839 11.25 199.931 12.1 200.014 12.95H200.114C200.264 12.1 200.414 11.25 200.564 10.4C200.714 9.55 200.864 8.7 201.014 7.85L202.564 0.749999H206.164L207.714 7.85C207.864 8.66667 208.014 9.50833 208.164 10.375C208.314 11.225 208.464 12.0833 208.614 12.95H208.714C208.797 12.0833 208.889 11.225 208.989 10.375C209.089 9.525 209.181 8.68333 209.264 7.85L210.164 0.749999H214.264L211.564 17H206.114L204.864 10.55C204.731 9.91667 204.614 9.275 204.514 8.625C204.431 7.975 204.347 7.35 204.264 6.75H204.164C204.081 7.35 203.989 7.975 203.889 8.625C203.806 9.275 203.697 9.91667 203.564 10.55L202.364 17H197.014ZM221.97 17.3C220.936 17.3 219.87 17.1167 218.77 16.75C217.686 16.3667 216.703 15.775 215.82 14.975L218.27 12.025C218.853 12.4917 219.478 12.875 220.145 13.175C220.828 13.4583 221.47 13.6 222.07 13.6C222.72 13.6 223.186 13.5 223.47 13.3C223.77 13.1 223.92 12.8167 223.92 12.45C223.92 12.25 223.87 12.0833 223.77 11.95C223.67 11.8167 223.52 11.6917 223.32 11.575C223.136 11.4583 222.911 11.35 222.645 11.25C222.378 11.1333 222.07 11.0083 221.72 10.875L219.695 10.025C219.261 9.85833 218.845 9.64167 218.445 9.375C218.045 9.09167 217.695 8.76667 217.395 8.4C217.095 8.01667 216.853 7.58333 216.67 7.1C216.503 6.61667 216.42 6.08333 216.42 5.5C216.42 4.8 216.57 4.15 216.87 3.55C217.17 2.93333 217.586 2.4 218.12 1.95C218.653 1.48333 219.286 1.11667 220.02 0.849999C220.77 0.583332 221.586 0.449998 222.47 0.449998C223.403 0.449998 224.345 0.624999 225.295 0.974999C226.261 1.325 227.12 1.875 227.87 2.625L225.72 5.325C225.17 4.94167 224.636 4.65 224.12 4.45C223.62 4.25 223.07 4.15 222.47 4.15C221.936 4.15 221.52 4.24167 221.22 4.425C220.92 4.60833 220.77 4.88333 220.77 5.25C220.77 5.63333 220.978 5.93333 221.395 6.15C221.828 6.35 222.42 6.59167 223.17 6.875L225.145 7.65C226.161 8.05 226.945 8.60833 227.495 9.325C228.045 10.0417 228.32 10.9667 228.32 12.1C228.32 12.7833 228.178 13.4417 227.895 14.075C227.611 14.7083 227.195 15.2667 226.645 15.75C226.111 16.2167 225.453 16.5917 224.67 16.875C223.886 17.1583 222.986 17.3 221.97 17.3Z" fill="white"/>
</svg>
